subject_04
version=1
nRows=329
nColumns=3
inDegrees=yes
endheader
time	r_shoulder_elev	r_elbow_flex
0.0000	18.842916	19.406403
0.0100	18.842916	19.406416
0.0200	18.842916	19.408587
0.0300	18.842916	19.414872
0.0400	18.842916	19.426961
0.0500	18.842916	19.446398
0.0600	18.842916	19.474733
0.0700	18.842916	19.513615
0.0800	18.842916	19.564750
0.0900	18.842916	19.629754
0.1000	18.842916	19.710024
0.1100	18.842916	19.806707
0.1200	18.842916	19.920810
0.1300	18.842916	20.053375
0.1400	18.842916	20.205592
0.1500	18.842916	20.378743
0.1600	18.842916	20.574000
0.1700	18.842916	20.792192
0.1800	18.842916	21.033717
0.1900	18.842916	21.298700
0.2000	18.842916	21.587364
0.2100	18.842916	21.900393
0.2200	18.842916	22.239069
0.2300	18.842916	22.605001
0.2400	18.842916	22.999544
0.2500	18.842916	23.423172
0.2600	18.842916	23.875188
0.2700	18.842916	24.354017
0.2800	18.842916	24.858034
0.2900	18.842916	25.386570
0.3000	18.842916	25.940568
0.3100	18.842916	26.522465
0.3200	18.842916	27.135227
0.3300	18.842916	27.780925
0.3400	18.842916	28.459515
0.3500	18.842916	29.168491
0.3600	18.842916	29.903711
0.3700	18.842916	30.661101
0.3800	18.842916	31.438520
0.3900	18.842916	32.236856
0.4000	18.842916	33.059752
0.4100	18.842916	33.911986
0.4200	18.842916	34.797169
0.4300	18.842916	35.715819
0.4400	18.842916	36.664729
0.4500	18.842916	37.638018
0.4600	18.842916	38.629410
0.4700	18.842916	39.634756
0.4800	18.842916	40.653633
0.4900	18.842916	41.689266
0.5000	18.842916	42.746817
0.5100	18.842916	43.830801
0.5200	18.842916	44.942836
0.5300	18.842916	46.080712
0.5400	18.842916	47.239192
0.5500	18.842916	48.412093
0.5600	18.842916	49.594670
0.5700	18.842916	50.785196
0.5800	18.842916	51.985060
0.5900	18.842916	53.197456
0.6000	18.842916	54.425355
0.6100	18.842916	55.669772
0.6200	18.842916	56.929119
0.6300	18.842916	58.199854
0.6400	18.842916	59.478013
0.6500	18.842916	60.760780
0.6600	18.842916	62.047327
0.6700	18.842916	63.338532
0.6800	18.842916	64.635801
0.6900	18.842916	65.939643
0.7000	18.842916	67.248754
0.7100	18.842916	68.560086
0.7200	18.842916	69.869852
0.7300	18.842916	71.174967
0.7400	18.842916	72.474215
0.7500	18.842916	73.768548
0.7600	18.842916	75.060369
0.7700	18.842916	76.352095
0.7800	18.842916	77.644644
0.7900	18.842916	78.936492
0.8000	18.842916	80.223721
0.8100	18.842916	81.501039
0.8200	18.842916	82.763390
0.8300	18.842916	84.007519
0.8400	18.842916	85.232924
0.8500	18.842916	86.441821
0.8600	18.842916	87.638140
0.8700	18.842916	88.825876
0.8800	18.842916	90.007348
0.8900	18.842916	91.181975
0.9000	18.842916	92.346012
0.9100	18.842916	93.493391
0.9200	18.842916	94.617453
0.9300	18.842916	95.713019
0.9400	18.842916	96.778068
0.9500	18.842916	97.814381
0.9600	18.842916	98.826808
0.9700	18.842916	99.821346
0.9800	18.842916	100.802690
0.9900	18.842916	101.772165
1.0000	18.842916	102.726913
1.0100	18.842916	103.660692
1.0200	18.842916	104.566053
1.0300	18.842916	105.437024
1.0400	18.842916	106.271204
1.0500	18.842916	107.070411
1.0600	18.842916	107.839612
1.0700	18.842916	108.584633
1.0800	18.842916	109.309666
1.0900	18.842916	110.015664
1.1000	18.842916	110.700251
1.1100	18.842916	111.359086
1.1200	18.842916	111.987911
1.1300	18.842916	112.584282
1.1400	18.842916	113.148184
1.1500	18.842916	113.681373
1.1600	18.842916	114.185973
1.1700	18.842916	114.663179
1.1800	18.842916	115.112844
1.1900	18.842916	115.534132
1.2000	18.842916	115.926768
1.2100	18.842916	116.292046
1.2200	18.842916	116.632838
1.2300	18.842916	116.952433
1.2400	18.842916	117.252766
1.2500	18.842916	117.533045
1.2600	18.842916	117.789702
1.2700	18.842916	118.017955
1.2800	18.842916	118.214379
1.2900	18.842916	118.379237
1.3000	18.842916	118.517298
1.3100	18.842916	118.636533
1.3200	18.842916	118.745118
1.3300	18.842916	118.848102
1.3400	18.842916	118.945368
1.3500	18.842916	119.031994
1.3600	18.842916	119.100956
1.3700	18.842916	119.146964
1.3800	18.842916	119.169601
1.3900	18.842916	119.174217
1.4000	18.842916	119.170103
1.4100	18.842916	119.166823
1.4200	18.842916	119.170487
1.4300	18.842916	119.181801
1.4400	18.842916	119.196617
1.4500	18.842916	119.207879
1.4600	18.842916	119.210253
1.4700	18.842916	119.203193
1.4800	18.842916	119.191046
1.4900	18.842916	119.180638
1.5000	18.842916	119.177644
1.5100	18.842916	119.183635
1.5200	18.842916	119.195329
1.5300	18.842916	119.206404
1.5400	18.842916	119.210873
1.5500	18.842916	119.206249
1.5600	18.842916	119.194810
1.5700	18.842916	119.182346
1.5800	18.842916	119.175087
1.5900	18.842916	119.176452
1.6000	18.842916	119.185370
1.6100	18.842916	119.197002
1.6200	18.842916	119.205437
1.6300	18.842916	119.206853
1.6400	18.842916	119.200964
1.6500	18.842916	119.189363
1.6600	18.842916	119.174555
1.6700	18.842916	119.157433
1.6800	18.842916	119.135399
1.6900	18.842916	119.102696
1.7000	18.842916	119.052749
1.7100	18.842916	118.981184
1.7200	18.842916	118.887685
1.7300	18.842916	118.775497
1.7400	18.842916	118.648669
1.7500	18.842916	118.508497
1.7600	18.842916	118.351205
1.7700	18.842916	118.168378
1.7800	18.842916	117.950232
1.7900	18.842916	117.690185
1.8000	18.842916	117.388352
1.8100	18.842916	117.051924
1.8200	18.842916	116.691887
1.8300	18.842916	116.317479
1.8400	18.842916	115.931025
1.8500	18.842916	115.525857
1.8600	18.842916	115.088553
1.8700	18.842916	114.604686
1.8800	18.842916	114.065386
1.8900	18.842916	113.471573
1.9000	18.842916	112.833692
1.9100	18.842916	112.166996
1.9200	18.842916	111.484535
1.9300	18.842916	110.791208
1.9400	18.842916	110.081700
1.9500	18.842916	109.343226
1.9600	18.842916	108.561703
1.9700	18.842916	107.728316
1.9800	18.842916	106.843352
1.9900	18.842916	105.915606
2.0000	18.842916	104.957884
2.0100	18.842916	103.980993
2.0200	18.842916	102.989234
2.0300	18.842916	101.979457
2.0400	18.842916	100.943836
2.0500	18.842916	99.874634
2.0600	18.842916	98.768352
2.0700	18.842916	97.627181
2.0800	18.842916	96.457301
2.0900	18.842916	95.265274
2.1000	18.842916	94.054757
2.1100	18.842916	92.825394
2.1200	18.842916	91.574366
2.1300	18.842916	90.299467
2.1400	18.842916	89.001672
2.1500	18.842916	87.685498
2.1600	18.842916	86.356812
2.1700	18.842916	85.019398
2.1800	18.842916	83.672447
2.1900	18.842916	82.310776
2.2000	18.842916	80.928045
2.2100	18.842916	79.521389
2.2200	18.842916	78.094822
2.2300	18.842916	76.659150
2.2400	18.842916	75.227860
2.2500	18.842916	73.810745
2.2600	18.842916	72.408521
2.2700	18.842916	71.011564
2.2800	18.842916	69.604042
2.2900	18.842916	68.171929
2.3000	18.842916	66.711160
2.3100	18.842916	65.231697
2.3200	18.842916	63.754978
2.3300	18.842916	62.305356
2.3400	18.842916	60.899243
2.3500	18.842916	59.537116
2.3600	18.842916	58.202530
2.3700	18.842916	56.869118
2.3800	18.842916	55.512732
2.3900	18.842916	54.123266
2.4000	18.842916	52.710558
2.4100	18.842916	51.301373
2.4200	18.842916	49.928556
2.4300	18.842916	48.617121
2.4400	18.842916	47.373604
2.4500	18.842916	46.183540
2.4600	18.842916	45.018262
2.4700	18.842916	43.847918
2.4800	18.842916	42.654822
2.4900	18.842916	41.441153
2.5000	18.842916	40.227735
2.5100	18.842916	39.044730
2.5200	18.842916	37.918691
2.5300	18.842916	36.861894
2.5400	18.842916	35.868527
2.5500	18.842916	34.919005
2.5600	18.842916	33.989893
2.5700	18.842916	33.064609
2.5800	18.842916	32.140024
2.5900	18.842916	31.226401
2.6000	18.842916	30.341317
2.6100	18.842916	29.500984
2.6200	18.842916	28.713261
2.6300	18.842916	27.975436
2.6400	18.842916	27.277317
2.6500	18.842916	26.607582
2.6600	18.842916	25.959904
2.6700	18.842916	25.335837
2.6800	18.842916	24.743259
2.6900	18.842916	24.191482
2.7000	18.842916	23.685746
2.7100	18.842916	23.223946
2.7200	18.842916	22.797221
2.7300	18.842916	22.394036
2.7400	18.842916	22.005727
2.7500	18.842916	21.630794
2.7600	18.842916	21.275928
2.7700	18.842916	20.953273
2.7800	18.842916	20.675130
2.7900	18.842916	20.448400
2.8000	18.842916	20.271089
2.8100	18.842916	20.132282
2.8200	18.842916	20.015569
2.8300	18.842916	19.904573
2.8400	18.842916	19.788495
2.8500	18.842916	19.665683
2.8600	18.842916	19.543942
2.8700	18.842916	19.437494
2.8800	18.842916	19.361575
2.8900	18.842916	19.326479
2.9000	18.842916	19.333052
2.9100	18.842916	19.371256
2.9200	18.842916	19.422453
2.9300	18.842916	19.464797
2.9400	18.842916	19.480269
2.9500	18.842916	19.461661
2.9600	18.842916	19.415031
2.9700	18.842916	19.356716
2.9800	18.842916	19.307550
2.9900	18.842916	19.285152
3.0000	18.842916	19.297259
3.0100	18.842916	19.338778
3.0200	18.842916	19.393833
3.0300	18.842916	19.442062
3.0400	18.842916	19.466584
3.0500	18.842916	19.460366
3.0600	18.842916	19.428371
3.0700	18.842916	19.384728
3.0800	18.842916	19.346372
3.0900	18.842916	19.326061
3.1000	18.842916	19.327854
3.1100	18.842916	19.346806
3.1200	18.842916	19.372580
3.1300	18.842916	19.394875
3.1400	18.842916	19.408140
3.1500	18.842916	19.413847
3.1600	18.842916	19.417646
3.1700	18.842916	19.425353
3.1800	18.842916	19.439848
3.1900	18.842916	19.460466
3.2000	18.842916	19.485199
3.2100	18.842916	19.514258
3.2200	18.842916	19.552597
3.2300	18.842916	19.609501
3.2400	18.842916	19.694960
3.2500	18.842916	19.814546
3.2600	18.842916	19.965630
3.2700	18.842916	20.137395
3.2800	18.842916	20.315261
